<?xml version="1.0" encoding="utf-8" standalone="no"?>
<!DOCTYPE svg PUBLIC "-//W3C//DTD SVG 1.1//EN"
  "http://www.w3.org/Graphics/SVG/1.1/DTD/svg11.dtd">
<svg height="730.557812pt" version="1.1" viewBox="0 0 611.51125 730.557812" width="611.51125pt" xmlns="http://www.w3.org/2000/svg" xmlns:xlink="http://www.w3.org/1999/xlink">
 <metadata>
  <rdf:RDF xmlns:cc="http://creativecommons.org/ns#" xmlns:dc="http://purl.org/dc/elements/1.1/" xmlns:rdf="http://www.w3.org/1999/02/22-rdf-syntax-ns#">
   <cc:Work>
    <dc:type rdf:resource="http://purl.org/dc/dcmitype/StillImage"/>
    <dc:date>2021-05-12T23:14:41.545164</dc:date>
    <dc:format>image/svg+xml</dc:format>
    <dc:creator>
     <cc:Agent>
      <dc:title>Matplotlib v3.4.1, https://matplotlib.org/</dc:title>
     </cc:Agent>
    </dc:creator>
   </cc:Work>
  </rdf:RDF>
 </metadata>
 <defs>
  <style type="text/css">*{stroke-linecap:butt;stroke-linejoin:round;}</style>
 </defs>
 <g id="figure_1">
  <g id="patch_1">
   <path d="M 0 730.557812 
L 611.51125 730.557812 
L 611.51125 0 
L 0 0 
z
" style="fill:#ffffff;"/>
  </g>
  <g id="axes_1">
   <g id="patch_2">
    <path d="M 46.31125 687.598125 
L 604.31125 687.598125 
L 604.31125 22.318125 
L 46.31125 22.318125 
z
" style="fill:#ffffff;"/>
   </g>
   <g id="matplotlib.axis_1">
    <g id="xtick_1">
     <g id="text_1">
      <!-- 3 -->
      <g style="fill:#262626;" transform="translate(122.244126 705.456406)scale(0.11 -0.11)">
       <defs>
        <path d="M 2597 2516 
Q 3050 2419 3304 2112 
Q 3559 1806 3559 1356 
Q 3559 666 3084 287 
Q 2609 -91 1734 -91 
Q 1441 -91 1130 -33 
Q 819 25 488 141 
L 488 750 
Q 750 597 1062 519 
Q 1375 441 1716 441 
Q 2309 441 2620 675 
Q 2931 909 2931 1356 
Q 2931 1769 2642 2001 
Q 2353 2234 1838 2234 
L 1294 2234 
L 1294 2753 
L 1863 2753 
Q 2328 2753 2575 2939 
Q 2822 3125 2822 3475 
Q 2822 3834 2567 4026 
Q 2313 4219 1838 4219 
Q 1578 4219 1281 4162 
Q 984 4106 628 3988 
L 628 4550 
Q 988 4650 1302 4700 
Q 1616 4750 1894 4750 
Q 2613 4750 3031 4423 
Q 3450 4097 3450 3541 
Q 3450 3153 3228 2886 
Q 3006 2619 2597 2516 
z
" id="DejaVuSans-33" transform="scale(0.015625)"/>
       </defs>
       <use xlink:href="#DejaVuSans-33"/>
      </g>
     </g>
    </g>
    <g id="xtick_2">
     <g id="text_2">
      <!-- 4 -->
      <g style="fill:#262626;" transform="translate(206.643067 705.456406)scale(0.11 -0.11)">
       <defs>
        <path d="M 2419 4116 
L 825 1625 
L 2419 1625 
L 2419 4116 
z
M 2253 4666 
L 3047 4666 
L 3047 1625 
L 3713 1625 
L 3713 1100 
L 3047 1100 
L 3047 0 
L 2419 0 
L 2419 1100 
L 313 1100 
L 313 1709 
L 2253 4666 
z
" id="DejaVuSans-34" transform="scale(0.015625)"/>
       </defs>
       <use xlink:href="#DejaVuSans-34"/>
      </g>
     </g>
    </g>
    <g id="xtick_3">
     <g id="text_3">
      <!-- 5 -->
      <g style="fill:#262626;" transform="translate(291.042008 705.456406)scale(0.11 -0.11)">
       <defs>
        <path d="M 691 4666 
L 3169 4666 
L 3169 4134 
L 1269 4134 
L 1269 2991 
Q 1406 3038 1543 3061 
Q 1681 3084 1819 3084 
Q 2600 3084 3056 2656 
Q 3513 2228 3513 1497 
Q 3513 744 3044 326 
Q 2575 -91 1722 -91 
Q 1428 -91 1123 -41 
Q 819 9 494 109 
L 494 744 
Q 775 591 1075 516 
Q 1375 441 1709 441 
Q 2250 441 2565 725 
Q 2881 1009 2881 1497 
Q 2881 1984 2565 2268 
Q 2250 2553 1709 2553 
Q 1456 2553 1204 2497 
Q 953 2441 691 2322 
L 691 4666 
z
" id="DejaVuSans-35" transform="scale(0.015625)"/>
       </defs>
       <use xlink:href="#DejaVuSans-35"/>
      </g>
     </g>
    </g>
    <g id="xtick_4">
     <g id="text_4">
      <!-- 6 -->
      <g style="fill:#262626;" transform="translate(375.440949 705.456406)scale(0.11 -0.11)">
       <defs>
        <path d="M 2113 2584 
Q 1688 2584 1439 2293 
Q 1191 2003 1191 1497 
Q 1191 994 1439 701 
Q 1688 409 2113 409 
Q 2538 409 2786 701 
Q 3034 994 3034 1497 
Q 3034 2003 2786 2293 
Q 2538 2584 2113 2584 
z
M 3366 4563 
L 3366 3988 
Q 3128 4100 2886 4159 
Q 2644 4219 2406 4219 
Q 1781 4219 1451 3797 
Q 1122 3375 1075 2522 
Q 1259 2794 1537 2939 
Q 1816 3084 2150 3084 
Q 2853 3084 3261 2657 
Q 3669 2231 3669 1497 
Q 3669 778 3244 343 
Q 2819 -91 2113 -91 
Q 1303 -91 875 529 
Q 447 1150 447 2328 
Q 447 3434 972 4092 
Q 1497 4750 2381 4750 
Q 2619 4750 2861 4703 
Q 3103 4656 3366 4563 
z
" id="DejaVuSans-36" transform="scale(0.015625)"/>
       </defs>
       <use xlink:href="#DejaVuSans-36"/>
      </g>
     </g>
    </g>
    <g id="xtick_5">
     <g id="text_5">
      <!-- 7 -->
      <g style="fill:#262626;" transform="translate(459.83989 705.456406)scale(0.11 -0.11)">
       <defs>
        <path d="M 525 4666 
L 3525 4666 
L 3525 4397 
L 1831 0 
L 1172 0 
L 2766 4134 
L 525 4134 
L 525 4666 
z
" id="DejaVuSans-37" transform="scale(0.015625)"/>
       </defs>
       <use xlink:href="#DejaVuSans-37"/>
      </g>
     </g>
    </g>
    <g id="xtick_6">
     <g id="text_6">
      <!-- 8 -->
      <g style="fill:#262626;" transform="translate(544.238831 705.456406)scale(0.11 -0.11)">
       <defs>
        <path d="M 2034 2216 
Q 1584 2216 1326 1975 
Q 1069 1734 1069 1313 
Q 1069 891 1326 650 
Q 1584 409 2034 409 
Q 2484 409 2743 651 
Q 3003 894 3003 1313 
Q 3003 1734 2745 1975 
Q 2488 2216 2034 2216 
z
M 1403 2484 
Q 997 2584 770 2862 
Q 544 3141 544 3541 
Q 544 4100 942 4425 
Q 1341 4750 2034 4750 
Q 2731 4750 3128 4425 
Q 3525 4100 3525 3541 
Q 3525 3141 3298 2862 
Q 3072 2584 2669 2484 
Q 3125 2378 3379 2068 
Q 3634 1759 3634 1313 
Q 3634 634 3220 271 
Q 2806 -91 2034 -91 
Q 1263 -91 848 271 
Q 434 634 434 1313 
Q 434 1759 690 2068 
Q 947 2378 1403 2484 
z
M 1172 3481 
Q 1172 3119 1398 2916 
Q 1625 2713 2034 2713 
Q 2441 2713 2670 2916 
Q 2900 3119 2900 3481 
Q 2900 3844 2670 4047 
Q 2441 4250 2034 4250 
Q 1625 4250 1398 4047 
Q 1172 3844 1172 3481 
z
" id="DejaVuSans-38" transform="scale(0.015625)"/>
       </defs>
       <use xlink:href="#DejaVuSans-38"/>
      </g>
     </g>
    </g>
    <g id="text_7">
     <!-- UMAP axis 1 -->
     <g style="fill:#262626;" transform="translate(288.369063 720.862188)scale(0.12 -0.12)">
      <defs>
       <path d="M 556 4666 
L 1191 4666 
L 1191 1831 
Q 1191 1081 1462 751 
Q 1734 422 2344 422 
Q 2950 422 3222 751 
Q 3494 1081 3494 1831 
L 3494 4666 
L 4128 4666 
L 4128 1753 
Q 4128 841 3676 375 
Q 3225 -91 2344 -91 
Q 1459 -91 1007 375 
Q 556 841 556 1753 
L 556 4666 
z
" id="DejaVuSans-55" transform="scale(0.015625)"/>
       <path d="M 628 4666 
L 1569 4666 
L 2759 1491 
L 3956 4666 
L 4897 4666 
L 4897 0 
L 4281 0 
L 4281 4097 
L 3078 897 
L 2444 897 
L 1241 4097 
L 1241 0 
L 628 0 
L 628 4666 
z
" id="DejaVuSans-4d" transform="scale(0.015625)"/>
       <path d="M 2188 4044 
L 1331 1722 
L 3047 1722 
L 2188 4044 
z
M 1831 4666 
L 2547 4666 
L 4325 0 
L 3669 0 
L 3244 1197 
L 1141 1197 
L 716 0 
L 50 0 
L 1831 4666 
z
" id="DejaVuSans-41" transform="scale(0.015625)"/>
       <path d="M 1259 4147 
L 1259 2394 
L 2053 2394 
Q 2494 2394 2734 2622 
Q 2975 2850 2975 3272 
Q 2975 3691 2734 3919 
Q 2494 4147 2053 4147 
L 1259 4147 
z
M 628 4666 
L 2053 4666 
Q 2838 4666 3239 4311 
Q 3641 3956 3641 3272 
Q 3641 2581 3239 2228 
Q 2838 1875 2053 1875 
L 1259 1875 
L 1259 0 
L 628 0 
L 628 4666 
z
" id="DejaVuSans-50" transform="scale(0.015625)"/>
       <path id="DejaVuSans-20" transform="scale(0.015625)"/>
       <path d="M 2194 1759 
Q 1497 1759 1228 1600 
Q 959 1441 959 1056 
Q 959 750 1161 570 
Q 1363 391 1709 391 
Q 2188 391 2477 730 
Q 2766 1069 2766 1631 
L 2766 1759 
L 2194 1759 
z
M 3341 1997 
L 3341 0 
L 2766 0 
L 2766 531 
Q 2569 213 2275 61 
Q 1981 -91 1556 -91 
Q 1019 -91 701 211 
Q 384 513 384 1019 
Q 384 1609 779 1909 
Q 1175 2209 1959 2209 
L 2766 2209 
L 2766 2266 
Q 2766 2663 2505 2880 
Q 2244 3097 1772 3097 
Q 1472 3097 1187 3025 
Q 903 2953 641 2809 
L 641 3341 
Q 956 3463 1253 3523 
Q 1550 3584 1831 3584 
Q 2591 3584 2966 3190 
Q 3341 2797 3341 1997 
z
" id="DejaVuSans-61" transform="scale(0.015625)"/>
       <path d="M 3513 3500 
L 2247 1797 
L 3578 0 
L 2900 0 
L 1881 1375 
L 863 0 
L 184 0 
L 1544 1831 
L 300 3500 
L 978 3500 
L 1906 2253 
L 2834 3500 
L 3513 3500 
z
" id="DejaVuSans-78" transform="scale(0.015625)"/>
       <path d="M 603 3500 
L 1178 3500 
L 1178 0 
L 603 0 
L 603 3500 
z
M 603 4863 
L 1178 4863 
L 1178 4134 
L 603 4134 
L 603 4863 
z
" id="DejaVuSans-69" transform="scale(0.015625)"/>
       <path d="M 2834 3397 
L 2834 2853 
Q 2591 2978 2328 3040 
Q 2066 3103 1784 3103 
Q 1356 3103 1142 2972 
Q 928 2841 928 2578 
Q 928 2378 1081 2264 
Q 1234 2150 1697 2047 
L 1894 2003 
Q 2506 1872 2764 1633 
Q 3022 1394 3022 966 
Q 3022 478 2636 193 
Q 2250 -91 1575 -91 
Q 1294 -91 989 -36 
Q 684 19 347 128 
L 347 722 
Q 666 556 975 473 
Q 1284 391 1588 391 
Q 1994 391 2212 530 
Q 2431 669 2431 922 
Q 2431 1156 2273 1281 
Q 2116 1406 1581 1522 
L 1381 1569 
Q 847 1681 609 1914 
Q 372 2147 372 2553 
Q 372 3047 722 3315 
Q 1072 3584 1716 3584 
Q 2034 3584 2315 3537 
Q 2597 3491 2834 3397 
z
" id="DejaVuSans-73" transform="scale(0.015625)"/>
       <path d="M 794 531 
L 1825 531 
L 1825 4091 
L 703 3866 
L 703 4441 
L 1819 4666 
L 2450 4666 
L 2450 531 
L 3481 531 
L 3481 0 
L 794 0 
L 794 531 
z
" id="DejaVuSans-31" transform="scale(0.015625)"/>
      </defs>
      <use xlink:href="#DejaVuSans-55"/>
      <use x="73.193359" xlink:href="#DejaVuSans-4d"/>
      <use x="159.472656" xlink:href="#DejaVuSans-41"/>
      <use x="227.880859" xlink:href="#DejaVuSans-50"/>
      <use x="288.183594" xlink:href="#DejaVuSans-20"/>
      <use x="319.970703" xlink:href="#DejaVuSans-61"/>
      <use x="381.25" xlink:href="#DejaVuSans-78"/>
      <use x="440.429688" xlink:href="#DejaVuSans-69"/>
      <use x="468.212891" xlink:href="#DejaVuSans-73"/>
      <use x="520.3125" xlink:href="#DejaVuSans-20"/>
      <use x="552.099609" xlink:href="#DejaVuSans-31"/>
     </g>
    </g>
   </g>
   <g id="matplotlib.axis_2">
    <g id="ytick_1">
     <g id="text_8">
      <!-- 11 -->
      <g style="fill:#262626;" transform="translate(22.81375 690.558002)scale(0.11 -0.11)">
       <use xlink:href="#DejaVuSans-31"/>
       <use x="63.623047" xlink:href="#DejaVuSans-31"/>
      </g>
     </g>
    </g>
    <g id="ytick_2">
     <g id="text_9">
      <!-- 12 -->
      <g style="fill:#262626;" transform="translate(22.81375 581.162855)scale(0.11 -0.11)">
       <defs>
        <path d="M 1228 531 
L 3431 531 
L 3431 0 
L 469 0 
L 469 531 
Q 828 903 1448 1529 
Q 2069 2156 2228 2338 
Q 2531 2678 2651 2914 
Q 2772 3150 2772 3378 
Q 2772 3750 2511 3984 
Q 2250 4219 1831 4219 
Q 1534 4219 1204 4116 
Q 875 4013 500 3803 
L 500 4441 
Q 881 4594 1212 4672 
Q 1544 4750 1819 4750 
Q 2544 4750 2975 4387 
Q 3406 4025 3406 3419 
Q 3406 3131 3298 2873 
Q 3191 2616 2906 2266 
Q 2828 2175 2409 1742 
Q 1991 1309 1228 531 
z
" id="DejaVuSans-32" transform="scale(0.015625)"/>
       </defs>
       <use xlink:href="#DejaVuSans-31"/>
       <use x="63.623047" xlink:href="#DejaVuSans-32"/>
      </g>
     </g>
    </g>
    <g id="ytick_3">
     <g id="text_10">
      <!-- 13 -->
      <g style="fill:#262626;" transform="translate(22.81375 471.767708)scale(0.11 -0.11)">
       <use xlink:href="#DejaVuSans-31"/>
       <use x="63.623047" xlink:href="#DejaVuSans-33"/>
      </g>
     </g>
    </g>
    <g id="ytick_4">
     <g id="text_11">
      <!-- 14 -->
      <g style="fill:#262626;" transform="translate(22.81375 362.372561)scale(0.11 -0.11)">
       <use xlink:href="#DejaVuSans-31"/>
       <use x="63.623047" xlink:href="#DejaVuSans-34"/>
      </g>
     </g>
    </g>
    <g id="ytick_5">
     <g id="text_12">
      <!-- 15 -->
      <g style="fill:#262626;" transform="translate(22.81375 252.977414)scale(0.11 -0.11)">
       <use xlink:href="#DejaVuSans-31"/>
       <use x="63.623047" xlink:href="#DejaVuSans-35"/>
      </g>
     </g>
    </g>
    <g id="ytick_6">
     <g id="text_13">
      <!-- 16 -->
      <g style="fill:#262626;" transform="translate(22.81375 143.582266)scale(0.11 -0.11)">
       <use xlink:href="#DejaVuSans-31"/>
       <use x="63.623047" xlink:href="#DejaVuSans-36"/>
      </g>
     </g>
    </g>
    <g id="ytick_7">
     <g id="text_14">
      <!-- 17 -->
      <g style="fill:#262626;" transform="translate(22.81375 34.187119)scale(0.11 -0.11)">
       <use xlink:href="#DejaVuSans-31"/>
       <use x="63.623047" xlink:href="#DejaVuSans-37"/>
      </g>
     </g>
    </g>
    <g id="text_15">
     <!-- UMAP axis 2 -->
     <g style="fill:#262626;" transform="translate(16.318125 391.900312)rotate(-90)scale(0.12 -0.12)">
      <use xlink:href="#DejaVuSans-55"/>
      <use x="73.193359" xlink:href="#DejaVuSans-4d"/>
      <use x="159.472656" xlink:href="#DejaVuSans-41"/>
      <use x="227.880859" xlink:href="#DejaVuSans-50"/>
      <use x="288.183594" xlink:href="#DejaVuSans-20"/>
      <use x="319.970703" xlink:href="#DejaVuSans-61"/>
      <use x="381.25" xlink:href="#DejaVuSans-78"/>
      <use x="440.429688" xlink:href="#DejaVuSans-69"/>
      <use x="468.212891" xlink:href="#DejaVuSans-73"/>
      <use x="520.3125" xlink:href="#DejaVuSans-20"/>
      <use x="552.099609" xlink:href="#DejaVuSans-32"/>
     </g>
    </g>
   </g>
   <g id="PathCollection_1">
    <defs>
     <path d="M 0 3 
C 0.795609 3 1.55874 2.683901 2.12132 2.12132 
C 2.683901 1.55874 3 0.795609 3 -0 
C 3 -0.795609 2.683901 -1.55874 2.12132 -2.12132 
C 1.55874 -2.683901 0.795609 -3 0 -3 
C -0.795609 -3 -1.55874 -2.683901 -2.12132 -2.12132 
C -2.683901 -1.55874 -3 -0.795609 -3 0 
C -3 0.795609 -2.683901 1.55874 -2.12132 2.12132 
C -1.55874 2.683901 -0.795609 3 0 3 
z
" id="C0_0_9fd3a063fe"/>
    </defs>
    <g clip-path="url(#p9d4f75ac6f)">
     <use style="fill:#cb1b4f;stroke:#cb1b4f;" x="487.706214" xlink:href="#C0_0_9fd3a063fe" y="248.266308"/>
    </g>
    <g clip-path="url(#p9d4f75ac6f)">
     <use style="fill:#611f53;stroke:#611f53;" x="327.798514" xlink:href="#C0_0_9fd3a063fe" y="637.455702"/>
    </g>
    <g clip-path="url(#p9d4f75ac6f)">
     <use style="fill:#611f53;stroke:#611f53;" x="578.947614" xlink:href="#C0_0_9fd3a063fe" y="61.90356"/>
    </g>
    <g clip-path="url(#p9d4f75ac6f)">
     <use style="fill:#611f53;stroke:#611f53;" x="392.866387" xlink:href="#C0_0_9fd3a063fe" y="233.892295"/>
    </g>
    <g clip-path="url(#p9d4f75ac6f)">
     <use style="fill:#611f53;stroke:#611f53;" x="569.640578" xlink:href="#C0_0_9fd3a063fe" y="135.305774"/>
    </g>
    <g clip-path="url(#p9d4f75ac6f)">
     <use style="fill:#6699dd;stroke:#6699dd;" x="133.556035" xlink:href="#C0_0_9fd3a063fe" y="508.349364"/>
    </g>
    <g clip-path="url(#p9d4f75ac6f)">
     <use style="fill:#22a884;stroke:#22a884;" x="531.662238" xlink:href="#C0_0_9fd3a063fe" y="118.084668"/>
    </g>
    <g clip-path="url(#p9d4f75ac6f)">
     <use style="fill:#f58860;stroke:#f58860;" x="562.519466" xlink:href="#C0_0_9fd3a063fe" y="126.426056"/>
    </g>
    <g clip-path="url(#p9d4f75ac6f)">
     <use style="fill:#cb1b4f;stroke:#cb1b4f;" x="236.405996" xlink:href="#C0_0_9fd3a063fe" y="253.106262"/>
    </g>
    <g clip-path="url(#p9d4f75ac6f)">
     <use style="fill:#f58860;stroke:#f58860;" x="576.007508" xlink:href="#C0_0_9fd3a063fe" y="111.703799"/>
    </g>
    <g clip-path="url(#p9d4f75ac6f)">
     <use style="fill:#cb1b4f;stroke:#cb1b4f;" x="342.85388" xlink:href="#C0_0_9fd3a063fe" y="578.504181"/>
    </g>
    <g clip-path="url(#p9d4f75ac6f)">
     <use style="fill:#cb1b4f;stroke:#cb1b4f;" x="514.274057" xlink:href="#C0_0_9fd3a063fe" y="257.942773"/>
    </g>
    <g clip-path="url(#p9d4f75ac6f)">
     <use style="fill:#611f53;stroke:#611f53;" x="567.696927" xlink:href="#C0_0_9fd3a063fe" y="243.368348"/>
    </g>
    <g clip-path="url(#p9d4f75ac6f)">
     <use style="fill:#6699dd;stroke:#6699dd;" x="282.91924" xlink:href="#C0_0_9fd3a063fe" y="569.051602"/>
    </g>
    <g clip-path="url(#p9d4f75ac6f)">
     <use style="fill:#f58860;stroke:#f58860;" x="300.127005" xlink:href="#C0_0_9fd3a063fe" y="569.293016"/>
    </g>
    <g clip-path="url(#p9d4f75ac6f)">
     <use style="fill:#611f53;stroke:#611f53;" x="556.888448" xlink:href="#C0_0_9fd3a063fe" y="273.799382"/>
    </g>
    <g clip-path="url(#p9d4f75ac6f)">
     <use style="fill:#611f53;stroke:#611f53;" x="521.218938" xlink:href="#C0_0_9fd3a063fe" y="342.460127"/>
    </g>
    <g clip-path="url(#p9d4f75ac6f)">
     <use style="fill:#5073a1;stroke:#5073a1;" x="173.843769" xlink:href="#C0_0_9fd3a063fe" y="527.325673"/>
    </g>
    <g clip-path="url(#p9d4f75ac6f)">
     <use style="fill:#611f53;stroke:#611f53;" x="133.973029" xlink:href="#C0_0_9fd3a063fe" y="460.998939"/>
    </g>
    <g clip-path="url(#p9d4f75ac6f)">
     <use style="fill:#f58860;stroke:#f58860;" x="340.536196" xlink:href="#C0_0_9fd3a063fe" y="523.179705"/>
    </g>
    <g clip-path="url(#p9d4f75ac6f)">
     <use style="fill:#cb1b4f;stroke:#cb1b4f;" x="334.279054" xlink:href="#C0_0_9fd3a063fe" y="583.878396"/>
    </g>
    <g clip-path="url(#p9d4f75ac6f)">
     <use style="fill:#cb1b4f;stroke:#cb1b4f;" x="500.980275" xlink:href="#C0_0_9fd3a063fe" y="274.770252"/>
    </g>
    <g clip-path="url(#p9d4f75ac6f)">
     <use style="fill:#611f53;stroke:#611f53;" x="71.674886" xlink:href="#C0_0_9fd3a063fe" y="263.000458"/>
    </g>
    <g clip-path="url(#p9d4f75ac6f)">
     <use style="fill:#5880b6;stroke:#5880b6;" x="98.812069" xlink:href="#C0_0_9fd3a063fe" y="219.294605"/>
    </g>
    <g clip-path="url(#p9d4f75ac6f)">
     <use style="fill:#611f53;stroke:#611f53;" x="148.125247" xlink:href="#C0_0_9fd3a063fe" y="261.023351"/>
    </g>
    <g clip-path="url(#p9d4f75ac6f)">
     <use style="fill:#5073a1;stroke:#5073a1;" x="107.263465" xlink:href="#C0_0_9fd3a063fe" y="334.715386"/>
    </g>
    <g clip-path="url(#p9d4f75ac6f)">
     <use style="fill:#cb1b4f;stroke:#cb1b4f;" x="114.721605" xlink:href="#C0_0_9fd3a063fe" y="286.43071"/>
    </g>
    <g clip-path="url(#p9d4f75ac6f)">
     <use style="fill:#6699dd;stroke:#6699dd;" x="83.482859" xlink:href="#C0_0_9fd3a063fe" y="255.927586"/>
    </g>
    <g clip-path="url(#p9d4f75ac6f)">
     <use style="fill:#cb1b4f;stroke:#cb1b4f;" x="312.060198" xlink:href="#C0_0_9fd3a063fe" y="657.358125"/>
    </g>
    <g clip-path="url(#p9d4f75ac6f)">
     <use style="fill:#cb1b4f;stroke:#cb1b4f;" x="473.614946" xlink:href="#C0_0_9fd3a063fe" y="402.862632"/>
    </g>
    <g clip-path="url(#p9d4f75ac6f)">
     <use style="fill:#5880b6;stroke:#5880b6;" x="152.008001" xlink:href="#C0_0_9fd3a063fe" y="470.456526"/>
    </g>
    <g clip-path="url(#p9d4f75ac6f)">
     <use style="fill:#6699dd;stroke:#6699dd;" x="529.8194" xlink:href="#C0_0_9fd3a063fe" y="171.582999"/>
    </g>
    <g clip-path="url(#p9d4f75ac6f)">
     <use style="fill:#6699dd;stroke:#6699dd;" x="188.980046" xlink:href="#C0_0_9fd3a063fe" y="440.061798"/>
    </g>
    <g clip-path="url(#p9d4f75ac6f)">
     <use style="fill:#611f53;stroke:#611f53;" x="206.84911" xlink:href="#C0_0_9fd3a063fe" y="232.007831"/>
    </g>
    <g clip-path="url(#p9d4f75ac6f)">
     <use style="fill:#cb1b4f;stroke:#cb1b4f;" x="425.636077" xlink:href="#C0_0_9fd3a063fe" y="185.968487"/>
    </g>
    <g clip-path="url(#p9d4f75ac6f)">
     <use style="fill:#cb1b4f;stroke:#cb1b4f;" x="453.735869" xlink:href="#C0_0_9fd3a063fe" y="156.040416"/>
    </g>
    <g clip-path="url(#p9d4f75ac6f)">
     <use style="fill:#cb1b4f;stroke:#cb1b4f;" x="77.731389" xlink:href="#C0_0_9fd3a063fe" y="235.359242"/>
    </g>
    <g clip-path="url(#p9d4f75ac6f)">
     <use style="fill:#5073a1;stroke:#5073a1;" x="75.561343" xlink:href="#C0_0_9fd3a063fe" y="293.248293"/>
    </g>
    <g clip-path="url(#p9d4f75ac6f)">
     <use style="fill:#611f53;stroke:#611f53;" x="322.155785" xlink:href="#C0_0_9fd3a063fe" y="537.481314"/>
    </g>
    <g clip-path="url(#p9d4f75ac6f)">
     <use style="fill:#cb1b4f;stroke:#cb1b4f;" x="543.767356" xlink:href="#C0_0_9fd3a063fe" y="287.416917"/>
    </g>
    <g clip-path="url(#p9d4f75ac6f)">
     <use style="fill:#611f53;stroke:#611f53;" x="528.92259" xlink:href="#C0_0_9fd3a063fe" y="90.550387"/>
    </g>
    <g clip-path="url(#p9d4f75ac6f)">
     <use style="fill:#f58860;stroke:#f58860;" x="561.247094" xlink:href="#C0_0_9fd3a063fe" y="52.558125"/>
    </g>
    <g clip-path="url(#p9d4f75ac6f)">
     <use style="fill:#cb1b4f;stroke:#cb1b4f;" x="106.149737" xlink:href="#C0_0_9fd3a063fe" y="528.793872"/>
    </g>
    <g clip-path="url(#p9d4f75ac6f)">
     <use style="fill:#611f53;stroke:#611f53;" x="561.3139" xlink:href="#C0_0_9fd3a063fe" y="294.259225"/>
    </g>
    <g clip-path="url(#p9d4f75ac6f)">
     <use style="fill:#7ad151;stroke:#7ad151;" x="221.174882" xlink:href="#C0_0_9fd3a063fe" y="216.233954"/>
    </g>
    <g clip-path="url(#p9d4f75ac6f)">
     <use style="fill:#5f8cc9;stroke:#5f8cc9;" x="227.84099" xlink:href="#C0_0_9fd3a063fe" y="251.003231"/>
    </g>
    <g clip-path="url(#p9d4f75ac6f)">
     <use style="fill:#611f53;stroke:#611f53;" x="302.36766" xlink:href="#C0_0_9fd3a063fe" y="619.732678"/>
    </g>
    <g clip-path="url(#p9d4f75ac6f)">
     <use style="fill:#5073a1;stroke:#5073a1;" x="134.533374" xlink:href="#C0_0_9fd3a063fe" y="536.587542"/>
    </g>
    <g clip-path="url(#p9d4f75ac6f)">
     <use style="fill:#5880b6;stroke:#5880b6;" x="415.052122" xlink:href="#C0_0_9fd3a063fe" y="172.112773"/>
    </g>
    <g clip-path="url(#p9d4f75ac6f)">
     <use style="fill:#cb1b4f;stroke:#cb1b4f;" x="186.333363" xlink:href="#C0_0_9fd3a063fe" y="489.094919"/>
    </g>
    <g clip-path="url(#p9d4f75ac6f)">
     <use style="fill:#611f53;stroke:#611f53;" x="467.589331" xlink:href="#C0_0_9fd3a063fe" y="410.366168"/>
    </g>
    <g clip-path="url(#p9d4f75ac6f)">
     <use style="fill:#cb1b4f;stroke:#cb1b4f;" x="543.481379" xlink:href="#C0_0_9fd3a063fe" y="112.311402"/>
    </g>
    <g clip-path="url(#p9d4f75ac6f)">
     <use style="fill:#22a884;stroke:#22a884;" x="339.90649" xlink:href="#C0_0_9fd3a063fe" y="607.789805"/>
    </g>
    <g clip-path="url(#p9d4f75ac6f)">
     <use style="fill:#cb1b4f;stroke:#cb1b4f;" x="109.670351" xlink:href="#C0_0_9fd3a063fe" y="460.975153"/>
    </g>
    <g clip-path="url(#p9d4f75ac6f)">
     <use style="fill:#611f53;stroke:#611f53;" x="160.780407" xlink:href="#C0_0_9fd3a063fe" y="326.109215"/>
    </g>
    <g clip-path="url(#p9d4f75ac6f)">
     <use style="fill:#49668d;stroke:#49668d;" x="365.338108" xlink:href="#C0_0_9fd3a063fe" y="546.15801"/>
    </g>
    <g clip-path="url(#p9d4f75ac6f)">
     <use style="fill:#cb1b4f;stroke:#cb1b4f;" x="411.514143" xlink:href="#C0_0_9fd3a063fe" y="194.31937"/>
    </g>
    <g clip-path="url(#p9d4f75ac6f)">
     <use style="fill:#cb1b4f;stroke:#cb1b4f;" x="514.750673" xlink:href="#C0_0_9fd3a063fe" y="69.784864"/>
    </g>
    <g clip-path="url(#p9d4f75ac6f)">
     <use style="fill:#5880b6;stroke:#5880b6;" x="190.87808" xlink:href="#C0_0_9fd3a063fe" y="500.888394"/>
    </g>
    <g clip-path="url(#p9d4f75ac6f)">
     <use style="fill:#611f53;stroke:#611f53;" x="131.933254" xlink:href="#C0_0_9fd3a063fe" y="540.522665"/>
    </g>
    <g clip-path="url(#p9d4f75ac6f)">
     <use style="fill:#cb1b4f;stroke:#cb1b4f;" x="192.344008" xlink:href="#C0_0_9fd3a063fe" y="248.020721"/>
    </g>
    <g clip-path="url(#p9d4f75ac6f)">
     <use style="fill:#cb1b4f;stroke:#cb1b4f;" x="96.919529" xlink:href="#C0_0_9fd3a063fe" y="267.883917"/>
    </g>
   </g>
   <g id="patch_3">
    <path d="M 46.31125 687.598125 
L 46.31125 22.318125 
" style="fill:none;stroke:#262626;stroke-linecap:square;stroke-linejoin:miter;stroke-width:1.25;"/>
   </g>
   <g id="patch_4">
    <path d="M 604.31125 687.598125 
L 604.31125 22.318125 
" style="fill:none;stroke:#262626;stroke-linecap:square;stroke-linejoin:miter;stroke-width:1.25;"/>
   </g>
   <g id="patch_5">
    <path d="M 46.31125 687.598125 
L 604.31125 687.598125 
" style="fill:none;stroke:#262626;stroke-linecap:square;stroke-linejoin:miter;stroke-width:1.25;"/>
   </g>
   <g id="patch_6">
    <path d="M 46.31125 22.318125 
L 604.31125 22.318125 
" style="fill:none;stroke:#262626;stroke-linecap:square;stroke-linejoin:miter;stroke-width:1.25;"/>
   </g>
   <g id="text_16">
    <!-- UMAP projection of dataset meta-features -->
    <g style="fill:#262626;" transform="translate(199.448125 16.318125)scale(0.12 -0.12)">
     <defs>
      <path d="M 1159 525 
L 1159 -1331 
L 581 -1331 
L 581 3500 
L 1159 3500 
L 1159 2969 
Q 1341 3281 1617 3432 
Q 1894 3584 2278 3584 
Q 2916 3584 3314 3078 
Q 3713 2572 3713 1747 
Q 3713 922 3314 415 
Q 2916 -91 2278 -91 
Q 1894 -91 1617 61 
Q 1341 213 1159 525 
z
M 3116 1747 
Q 3116 2381 2855 2742 
Q 2594 3103 2138 3103 
Q 1681 3103 1420 2742 
Q 1159 2381 1159 1747 
Q 1159 1113 1420 752 
Q 1681 391 2138 391 
Q 2594 391 2855 752 
Q 3116 1113 3116 1747 
z
" id="DejaVuSans-70" transform="scale(0.015625)"/>
      <path d="M 2631 2963 
Q 2534 3019 2420 3045 
Q 2306 3072 2169 3072 
Q 1681 3072 1420 2755 
Q 1159 2438 1159 1844 
L 1159 0 
L 581 0 
L 581 3500 
L 1159 3500 
L 1159 2956 
Q 1341 3275 1631 3429 
Q 1922 3584 2338 3584 
Q 2397 3584 2469 3576 
Q 2541 3569 2628 3553 
L 2631 2963 
z
" id="DejaVuSans-72" transform="scale(0.015625)"/>
      <path d="M 1959 3097 
Q 1497 3097 1228 2736 
Q 959 2375 959 1747 
Q 959 1119 1226 758 
Q 1494 397 1959 397 
Q 2419 397 2687 759 
Q 2956 1122 2956 1747 
Q 2956 2369 2687 2733 
Q 2419 3097 1959 3097 
z
M 1959 3584 
Q 2709 3584 3137 3096 
Q 3566 2609 3566 1747 
Q 3566 888 3137 398 
Q 2709 -91 1959 -91 
Q 1206 -91 779 398 
Q 353 888 353 1747 
Q 353 2609 779 3096 
Q 1206 3584 1959 3584 
z
" id="DejaVuSans-6f" transform="scale(0.015625)"/>
      <path d="M 603 3500 
L 1178 3500 
L 1178 -63 
Q 1178 -731 923 -1031 
Q 669 -1331 103 -1331 
L -116 -1331 
L -116 -844 
L 38 -844 
Q 366 -844 484 -692 
Q 603 -541 603 -63 
L 603 3500 
z
M 603 4863 
L 1178 4863 
L 1178 4134 
L 603 4134 
L 603 4863 
z
" id="DejaVuSans-6a" transform="scale(0.015625)"/>
      <path d="M 3597 1894 
L 3597 1613 
L 953 1613 
Q 991 1019 1311 708 
Q 1631 397 2203 397 
Q 2534 397 2845 478 
Q 3156 559 3463 722 
L 3463 178 
Q 3153 47 2828 -22 
Q 2503 -91 2169 -91 
Q 1331 -91 842 396 
Q 353 884 353 1716 
Q 353 2575 817 3079 
Q 1281 3584 2069 3584 
Q 2775 3584 3186 3129 
Q 3597 2675 3597 1894 
z
M 3022 2063 
Q 3016 2534 2758 2815 
Q 2500 3097 2075 3097 
Q 1594 3097 1305 2825 
Q 1016 2553 972 2059 
L 3022 2063 
z
" id="DejaVuSans-65" transform="scale(0.015625)"/>
      <path d="M 3122 3366 
L 3122 2828 
Q 2878 2963 2633 3030 
Q 2388 3097 2138 3097 
Q 1578 3097 1268 2742 
Q 959 2388 959 1747 
Q 959 1106 1268 751 
Q 1578 397 2138 397 
Q 2388 397 2633 464 
Q 2878 531 3122 666 
L 3122 134 
Q 2881 22 2623 -34 
Q 2366 -91 2075 -91 
Q 1284 -91 818 406 
Q 353 903 353 1747 
Q 353 2603 823 3093 
Q 1294 3584 2113 3584 
Q 2378 3584 2631 3529 
Q 2884 3475 3122 3366 
z
" id="DejaVuSans-63" transform="scale(0.015625)"/>
      <path d="M 1172 4494 
L 1172 3500 
L 2356 3500 
L 2356 3053 
L 1172 3053 
L 1172 1153 
Q 1172 725 1289 603 
Q 1406 481 1766 481 
L 2356 481 
L 2356 0 
L 1766 0 
Q 1100 0 847 248 
Q 594 497 594 1153 
L 594 3053 
L 172 3053 
L 172 3500 
L 594 3500 
L 594 4494 
L 1172 4494 
z
" id="DejaVuSans-74" transform="scale(0.015625)"/>
      <path d="M 3513 2113 
L 3513 0 
L 2938 0 
L 2938 2094 
Q 2938 2591 2744 2837 
Q 2550 3084 2163 3084 
Q 1697 3084 1428 2787 
Q 1159 2491 1159 1978 
L 1159 0 
L 581 0 
L 581 3500 
L 1159 3500 
L 1159 2956 
Q 1366 3272 1645 3428 
Q 1925 3584 2291 3584 
Q 2894 3584 3203 3211 
Q 3513 2838 3513 2113 
z
" id="DejaVuSans-6e" transform="scale(0.015625)"/>
      <path d="M 2375 4863 
L 2375 4384 
L 1825 4384 
Q 1516 4384 1395 4259 
Q 1275 4134 1275 3809 
L 1275 3500 
L 2222 3500 
L 2222 3053 
L 1275 3053 
L 1275 0 
L 697 0 
L 697 3053 
L 147 3053 
L 147 3500 
L 697 3500 
L 697 3744 
Q 697 4328 969 4595 
Q 1241 4863 1831 4863 
L 2375 4863 
z
" id="DejaVuSans-66" transform="scale(0.015625)"/>
      <path d="M 2906 2969 
L 2906 4863 
L 3481 4863 
L 3481 0 
L 2906 0 
L 2906 525 
Q 2725 213 2448 61 
Q 2172 -91 1784 -91 
Q 1150 -91 751 415 
Q 353 922 353 1747 
Q 353 2572 751 3078 
Q 1150 3584 1784 3584 
Q 2172 3584 2448 3432 
Q 2725 3281 2906 2969 
z
M 947 1747 
Q 947 1113 1208 752 
Q 1469 391 1925 391 
Q 2381 391 2643 752 
Q 2906 1113 2906 1747 
Q 2906 2381 2643 2742 
Q 2381 3103 1925 3103 
Q 1469 3103 1208 2742 
Q 947 2381 947 1747 
z
" id="DejaVuSans-64" transform="scale(0.015625)"/>
      <path d="M 3328 2828 
Q 3544 3216 3844 3400 
Q 4144 3584 4550 3584 
Q 5097 3584 5394 3201 
Q 5691 2819 5691 2113 
L 5691 0 
L 5113 0 
L 5113 2094 
Q 5113 2597 4934 2840 
Q 4756 3084 4391 3084 
Q 3944 3084 3684 2787 
Q 3425 2491 3425 1978 
L 3425 0 
L 2847 0 
L 2847 2094 
Q 2847 2600 2669 2842 
Q 2491 3084 2119 3084 
Q 1678 3084 1418 2786 
Q 1159 2488 1159 1978 
L 1159 0 
L 581 0 
L 581 3500 
L 1159 3500 
L 1159 2956 
Q 1356 3278 1631 3431 
Q 1906 3584 2284 3584 
Q 2666 3584 2933 3390 
Q 3200 3197 3328 2828 
z
" id="DejaVuSans-6d" transform="scale(0.015625)"/>
      <path d="M 313 2009 
L 1997 2009 
L 1997 1497 
L 313 1497 
L 313 2009 
z
" id="DejaVuSans-2d" transform="scale(0.015625)"/>
      <path d="M 544 1381 
L 544 3500 
L 1119 3500 
L 1119 1403 
Q 1119 906 1312 657 
Q 1506 409 1894 409 
Q 2359 409 2629 706 
Q 2900 1003 2900 1516 
L 2900 3500 
L 3475 3500 
L 3475 0 
L 2900 0 
L 2900 538 
Q 2691 219 2414 64 
Q 2138 -91 1772 -91 
Q 1169 -91 856 284 
Q 544 659 544 1381 
z
M 1991 3584 
L 1991 3584 
z
" id="DejaVuSans-75" transform="scale(0.015625)"/>
     </defs>
     <use xlink:href="#DejaVuSans-55"/>
     <use x="73.193359" xlink:href="#DejaVuSans-4d"/>
     <use x="159.472656" xlink:href="#DejaVuSans-41"/>
     <use x="227.880859" xlink:href="#DejaVuSans-50"/>
     <use x="288.183594" xlink:href="#DejaVuSans-20"/>
     <use x="319.970703" xlink:href="#DejaVuSans-70"/>
     <use x="383.447266" xlink:href="#DejaVuSans-72"/>
     <use x="422.310547" xlink:href="#DejaVuSans-6f"/>
     <use x="483.492188" xlink:href="#DejaVuSans-6a"/>
     <use x="511.275391" xlink:href="#DejaVuSans-65"/>
     <use x="572.798828" xlink:href="#DejaVuSans-63"/>
     <use x="627.779297" xlink:href="#DejaVuSans-74"/>
     <use x="666.988281" xlink:href="#DejaVuSans-69"/>
     <use x="694.771484" xlink:href="#DejaVuSans-6f"/>
     <use x="755.953125" xlink:href="#DejaVuSans-6e"/>
     <use x="819.332031" xlink:href="#DejaVuSans-20"/>
     <use x="851.119141" xlink:href="#DejaVuSans-6f"/>
     <use x="912.300781" xlink:href="#DejaVuSans-66"/>
     <use x="947.505859" xlink:href="#DejaVuSans-20"/>
     <use x="979.292969" xlink:href="#DejaVuSans-64"/>
     <use x="1042.769531" xlink:href="#DejaVuSans-61"/>
     <use x="1104.048828" xlink:href="#DejaVuSans-74"/>
     <use x="1143.257812" xlink:href="#DejaVuSans-61"/>
     <use x="1204.537109" xlink:href="#DejaVuSans-73"/>
     <use x="1256.636719" xlink:href="#DejaVuSans-65"/>
     <use x="1318.160156" xlink:href="#DejaVuSans-74"/>
     <use x="1357.369141" xlink:href="#DejaVuSans-20"/>
     <use x="1389.15625" xlink:href="#DejaVuSans-6d"/>
     <use x="1486.568359" xlink:href="#DejaVuSans-65"/>
     <use x="1548.091797" xlink:href="#DejaVuSans-74"/>
     <use x="1587.300781" xlink:href="#DejaVuSans-61"/>
     <use x="1648.580078" xlink:href="#DejaVuSans-2d"/>
     <use x="1684.664062" xlink:href="#DejaVuSans-66"/>
     <use x="1719.869141" xlink:href="#DejaVuSans-65"/>
     <use x="1781.392578" xlink:href="#DejaVuSans-61"/>
     <use x="1842.671875" xlink:href="#DejaVuSans-74"/>
     <use x="1881.880859" xlink:href="#DejaVuSans-75"/>
     <use x="1945.259766" xlink:href="#DejaVuSans-72"/>
     <use x="1984.123047" xlink:href="#DejaVuSans-65"/>
     <use x="2045.646484" xlink:href="#DejaVuSans-73"/>
    </g>
   </g>
   <g id="legend_1">
    <g id="patch_7">
     <path d="M 54.01125 192.5775 
L 203.502969 192.5775 
Q 205.702969 192.5775 205.702969 190.3775 
L 205.702969 30.018125 
Q 205.702969 27.818125 203.502969 27.818125 
L 54.01125 27.818125 
Q 51.81125 27.818125 51.81125 30.018125 
L 51.81125 190.3775 
Q 51.81125 192.5775 54.01125 192.5775 
z
" style="fill:#ffffff;opacity:0.8;stroke:#cccccc;stroke-linejoin:miter;"/>
    </g>
    <g id="line2d_1">
     <path d="M 56.21125 36.726406 
L 78.21125 36.726406 
" style="fill:none;stroke:#ffffff;stroke-linecap:round;stroke-width:1.5;"/>
    </g>
    <g id="line2d_2">
     <defs>
      <path d="M 0 3 
C 0.795609 3 1.55874 2.683901 2.12132 2.12132 
C 2.683901 1.55874 3 0.795609 3 0 
C 3 -0.795609 2.683901 -1.55874 2.12132 -2.12132 
C 1.55874 -2.683901 0.795609 -3 0 -3 
C -0.795609 -3 -1.55874 -2.683901 -2.12132 -2.12132 
C -2.683901 -1.55874 -3 -0.795609 -3 0 
C -3 0.795609 -2.683901 1.55874 -2.12132 2.12132 
C -1.55874 2.683901 -0.795609 3 0 3 
z
" id="me61d0b6130" style="stroke:#ffffff;"/>
     </defs>
     <g>
      <use style="fill:#7ad151;stroke:#ffffff;" x="67.21125" xlink:href="#me61d0b6130" y="36.726406"/>
     </g>
    </g>
    <g id="text_17">
     <!-- selector autosklearn -->
     <g style="fill:#262626;" transform="translate(87.01125 40.576406)scale(0.11 -0.11)">
      <defs>
       <path d="M 603 4863 
L 1178 4863 
L 1178 0 
L 603 0 
L 603 4863 
z
" id="DejaVuSans-6c" transform="scale(0.015625)"/>
       <path d="M 581 4863 
L 1159 4863 
L 1159 1991 
L 2875 3500 
L 3609 3500 
L 1753 1863 
L 3688 0 
L 2938 0 
L 1159 1709 
L 1159 0 
L 581 0 
L 581 4863 
z
" id="DejaVuSans-6b" transform="scale(0.015625)"/>
      </defs>
      <use xlink:href="#DejaVuSans-73"/>
      <use x="52.099609" xlink:href="#DejaVuSans-65"/>
      <use x="113.623047" xlink:href="#DejaVuSans-6c"/>
      <use x="141.40625" xlink:href="#DejaVuSans-65"/>
      <use x="202.929688" xlink:href="#DejaVuSans-63"/>
      <use x="257.910156" xlink:href="#DejaVuSans-74"/>
      <use x="297.119141" xlink:href="#DejaVuSans-6f"/>
      <use x="358.300781" xlink:href="#DejaVuSans-72"/>
      <use x="399.414062" xlink:href="#DejaVuSans-20"/>
      <use x="431.201172" xlink:href="#DejaVuSans-61"/>
      <use x="492.480469" xlink:href="#DejaVuSans-75"/>
      <use x="555.859375" xlink:href="#DejaVuSans-74"/>
      <use x="595.068359" xlink:href="#DejaVuSans-6f"/>
      <use x="656.25" xlink:href="#DejaVuSans-73"/>
      <use x="708.349609" xlink:href="#DejaVuSans-6b"/>
      <use x="766.259766" xlink:href="#DejaVuSans-6c"/>
      <use x="794.042969" xlink:href="#DejaVuSans-65"/>
      <use x="855.566406" xlink:href="#DejaVuSans-61"/>
      <use x="916.845703" xlink:href="#DejaVuSans-72"/>
      <use x="956.208984" xlink:href="#DejaVuSans-6e"/>
     </g>
    </g>
    <g id="line2d_3">
     <path d="M 56.21125 52.872344 
L 78.21125 52.872344 
" style="fill:none;stroke:#ffffff;stroke-linecap:round;stroke-width:1.5;"/>
    </g>
    <g id="line2d_4">
     <defs>
      <path d="M 0 3 
C 0.795609 3 1.55874 2.683901 2.12132 2.12132 
C 2.683901 1.55874 3 0.795609 3 0 
C 3 -0.795609 2.683901 -1.55874 2.12132 -2.12132 
C 1.55874 -2.683901 0.795609 -3 0 -3 
C -0.795609 -3 -1.55874 -2.683901 -2.12132 -2.12132 
C -2.683901 -1.55874 -3 -0.795609 -3 0 
C -3 0.795609 -2.683901 1.55874 -2.12132 2.12132 
C -1.55874 2.683901 -0.795609 3 0 3 
z
" id="m4b57e61502" style="stroke:#ffffff;"/>
     </defs>
     <g>
      <use style="fill:#22a884;stroke:#ffffff;" x="67.21125" xlink:href="#m4b57e61502" y="52.872344"/>
     </g>
    </g>
    <g id="text_18">
     <!-- selector desknorau -->
     <g style="fill:#262626;" transform="translate(87.01125 56.722344)scale(0.11 -0.11)">
      <use xlink:href="#DejaVuSans-73"/>
      <use x="52.099609" xlink:href="#DejaVuSans-65"/>
      <use x="113.623047" xlink:href="#DejaVuSans-6c"/>
      <use x="141.40625" xlink:href="#DejaVuSans-65"/>
      <use x="202.929688" xlink:href="#DejaVuSans-63"/>
      <use x="257.910156" xlink:href="#DejaVuSans-74"/>
      <use x="297.119141" xlink:href="#DejaVuSans-6f"/>
      <use x="358.300781" xlink:href="#DejaVuSans-72"/>
      <use x="399.414062" xlink:href="#DejaVuSans-20"/>
      <use x="431.201172" xlink:href="#DejaVuSans-64"/>
      <use x="494.677734" xlink:href="#DejaVuSans-65"/>
      <use x="556.201172" xlink:href="#DejaVuSans-73"/>
      <use x="608.300781" xlink:href="#DejaVuSans-6b"/>
      <use x="666.210938" xlink:href="#DejaVuSans-6e"/>
      <use x="729.589844" xlink:href="#DejaVuSans-6f"/>
      <use x="790.771484" xlink:href="#DejaVuSans-72"/>
      <use x="831.884766" xlink:href="#DejaVuSans-61"/>
      <use x="893.164062" xlink:href="#DejaVuSans-75"/>
     </g>
    </g>
    <g id="line2d_5">
     <path d="M 56.21125 69.018281 
L 78.21125 69.018281 
" style="fill:none;stroke:#ffffff;stroke-linecap:round;stroke-width:1.5;"/>
    </g>
    <g id="line2d_6">
     <defs>
      <path d="M 0 3 
C 0.795609 3 1.55874 2.683901 2.12132 2.12132 
C 2.683901 1.55874 3 0.795609 3 0 
C 3 -0.795609 2.683901 -1.55874 2.12132 -2.12132 
C 1.55874 -2.683901 0.795609 -3 0 -3 
C -0.795609 -3 -1.55874 -2.683901 -2.12132 -2.12132 
C -2.683901 -1.55874 -3 -0.795609 -3 0 
C -3 0.795609 -2.683901 1.55874 -2.12132 2.12132 
C -1.55874 2.683901 -0.795609 3 0 3 
z
" id="mb5ff66fb5a" style="stroke:#ffffff;"/>
     </defs>
     <g>
      <use style="fill:#611f53;stroke:#ffffff;" x="67.21125" xlink:href="#mb5ff66fb5a" y="69.018281"/>
     </g>
    </g>
    <g id="text_19">
     <!-- baseline autosklearn -->
     <g style="fill:#262626;" transform="translate(87.01125 72.868281)scale(0.11 -0.11)">
      <defs>
       <path d="M 3116 1747 
Q 3116 2381 2855 2742 
Q 2594 3103 2138 3103 
Q 1681 3103 1420 2742 
Q 1159 2381 1159 1747 
Q 1159 1113 1420 752 
Q 1681 391 2138 391 
Q 2594 391 2855 752 
Q 3116 1113 3116 1747 
z
M 1159 2969 
Q 1341 3281 1617 3432 
Q 1894 3584 2278 3584 
Q 2916 3584 3314 3078 
Q 3713 2572 3713 1747 
Q 3713 922 3314 415 
Q 2916 -91 2278 -91 
Q 1894 -91 1617 61 
Q 1341 213 1159 525 
L 1159 0 
L 581 0 
L 581 4863 
L 1159 4863 
L 1159 2969 
z
" id="DejaVuSans-62" transform="scale(0.015625)"/>
      </defs>
      <use xlink:href="#DejaVuSans-62"/>
      <use x="63.476562" xlink:href="#DejaVuSans-61"/>
      <use x="124.755859" xlink:href="#DejaVuSans-73"/>
      <use x="176.855469" xlink:href="#DejaVuSans-65"/>
      <use x="238.378906" xlink:href="#DejaVuSans-6c"/>
      <use x="266.162109" xlink:href="#DejaVuSans-69"/>
      <use x="293.945312" xlink:href="#DejaVuSans-6e"/>
      <use x="357.324219" xlink:href="#DejaVuSans-65"/>
      <use x="418.847656" xlink:href="#DejaVuSans-20"/>
      <use x="450.634766" xlink:href="#DejaVuSans-61"/>
      <use x="511.914062" xlink:href="#DejaVuSans-75"/>
      <use x="575.292969" xlink:href="#DejaVuSans-74"/>
      <use x="614.501953" xlink:href="#DejaVuSans-6f"/>
      <use x="675.683594" xlink:href="#DejaVuSans-73"/>
      <use x="727.783203" xlink:href="#DejaVuSans-6b"/>
      <use x="785.693359" xlink:href="#DejaVuSans-6c"/>
      <use x="813.476562" xlink:href="#DejaVuSans-65"/>
      <use x="875" xlink:href="#DejaVuSans-61"/>
      <use x="936.279297" xlink:href="#DejaVuSans-72"/>
      <use x="975.642578" xlink:href="#DejaVuSans-6e"/>
     </g>
    </g>
    <g id="line2d_7">
     <path d="M 56.21125 85.164219 
L 78.21125 85.164219 
" style="fill:none;stroke:#ffffff;stroke-linecap:round;stroke-width:1.5;"/>
    </g>
    <g id="line2d_8">
     <defs>
      <path d="M 0 3 
C 0.795609 3 1.55874 2.683901 2.12132 2.12132 
C 2.683901 1.55874 3 0.795609 3 0 
C 3 -0.795609 2.683901 -1.55874 2.12132 -2.12132 
C 1.55874 -2.683901 0.795609 -3 0 -3 
C -0.795609 -3 -1.55874 -2.683901 -2.12132 -2.12132 
C -2.683901 -1.55874 -3 -0.795609 -3 0 
C -3 0.795609 -2.683901 1.55874 -2.12132 2.12132 
C -1.55874 2.683901 -0.795609 3 0 3 
z
" id="md4e89bbc53" style="stroke:#ffffff;"/>
     </defs>
     <g>
      <use style="fill:#cb1b4f;stroke:#ffffff;" x="67.21125" xlink:href="#md4e89bbc53" y="85.164219"/>
     </g>
    </g>
    <g id="text_20">
     <!-- baseline tpot -->
     <g style="fill:#262626;" transform="translate(87.01125 89.014219)scale(0.11 -0.11)">
      <use xlink:href="#DejaVuSans-62"/>
      <use x="63.476562" xlink:href="#DejaVuSans-61"/>
      <use x="124.755859" xlink:href="#DejaVuSans-73"/>
      <use x="176.855469" xlink:href="#DejaVuSans-65"/>
      <use x="238.378906" xlink:href="#DejaVuSans-6c"/>
      <use x="266.162109" xlink:href="#DejaVuSans-69"/>
      <use x="293.945312" xlink:href="#DejaVuSans-6e"/>
      <use x="357.324219" xlink:href="#DejaVuSans-65"/>
      <use x="418.847656" xlink:href="#DejaVuSans-20"/>
      <use x="450.634766" xlink:href="#DejaVuSans-74"/>
      <use x="489.84375" xlink:href="#DejaVuSans-70"/>
      <use x="553.320312" xlink:href="#DejaVuSans-6f"/>
      <use x="614.501953" xlink:href="#DejaVuSans-74"/>
     </g>
    </g>
    <g id="line2d_9">
     <path d="M 56.21125 101.310156 
L 78.21125 101.310156 
" style="fill:none;stroke:#ffffff;stroke-linecap:round;stroke-width:1.5;"/>
    </g>
    <g id="line2d_10">
     <defs>
      <path d="M 0 3 
C 0.795609 3 1.55874 2.683901 2.12132 2.12132 
C 2.683901 1.55874 3 0.795609 3 0 
C 3 -0.795609 2.683901 -1.55874 2.12132 -2.12132 
C 1.55874 -2.683901 0.795609 -3 0 -3 
C -0.795609 -3 -1.55874 -2.683901 -2.12132 -2.12132 
C -2.683901 -1.55874 -3 -0.795609 -3 0 
C -3 0.795609 -2.683901 1.55874 -2.12132 2.12132 
C -1.55874 2.683901 -0.795609 3 0 3 
z
" id="m3e1a165d6b" style="stroke:#ffffff;"/>
     </defs>
     <g>
      <use style="fill:#f58860;stroke:#ffffff;" x="67.21125" xlink:href="#m3e1a165d6b" y="101.310156"/>
     </g>
    </g>
    <g id="text_21">
     <!-- baseline stacking -->
     <g style="fill:#262626;" transform="translate(87.01125 105.160156)scale(0.11 -0.11)">
      <defs>
       <path d="M 2906 1791 
Q 2906 2416 2648 2759 
Q 2391 3103 1925 3103 
Q 1463 3103 1205 2759 
Q 947 2416 947 1791 
Q 947 1169 1205 825 
Q 1463 481 1925 481 
Q 2391 481 2648 825 
Q 2906 1169 2906 1791 
z
M 3481 434 
Q 3481 -459 3084 -895 
Q 2688 -1331 1869 -1331 
Q 1566 -1331 1297 -1286 
Q 1028 -1241 775 -1147 
L 775 -588 
Q 1028 -725 1275 -790 
Q 1522 -856 1778 -856 
Q 2344 -856 2625 -561 
Q 2906 -266 2906 331 
L 2906 616 
Q 2728 306 2450 153 
Q 2172 0 1784 0 
Q 1141 0 747 490 
Q 353 981 353 1791 
Q 353 2603 747 3093 
Q 1141 3584 1784 3584 
Q 2172 3584 2450 3431 
Q 2728 3278 2906 2969 
L 2906 3500 
L 3481 3500 
L 3481 434 
z
" id="DejaVuSans-67" transform="scale(0.015625)"/>
      </defs>
      <use xlink:href="#DejaVuSans-62"/>
      <use x="63.476562" xlink:href="#DejaVuSans-61"/>
      <use x="124.755859" xlink:href="#DejaVuSans-73"/>
      <use x="176.855469" xlink:href="#DejaVuSans-65"/>
      <use x="238.378906" xlink:href="#DejaVuSans-6c"/>
      <use x="266.162109" xlink:href="#DejaVuSans-69"/>
      <use x="293.945312" xlink:href="#DejaVuSans-6e"/>
      <use x="357.324219" xlink:href="#DejaVuSans-65"/>
      <use x="418.847656" xlink:href="#DejaVuSans-20"/>
      <use x="450.634766" xlink:href="#DejaVuSans-73"/>
      <use x="502.734375" xlink:href="#DejaVuSans-74"/>
      <use x="541.943359" xlink:href="#DejaVuSans-61"/>
      <use x="603.222656" xlink:href="#DejaVuSans-63"/>
      <use x="658.203125" xlink:href="#DejaVuSans-6b"/>
      <use x="716.113281" xlink:href="#DejaVuSans-69"/>
      <use x="743.896484" xlink:href="#DejaVuSans-6e"/>
      <use x="807.275391" xlink:href="#DejaVuSans-67"/>
     </g>
    </g>
    <g id="line2d_11">
     <path d="M 56.21125 117.456094 
L 78.21125 117.456094 
" style="fill:none;stroke:#ffffff;stroke-linecap:round;stroke-width:1.5;"/>
    </g>
    <g id="line2d_12">
     <defs>
      <path d="M 0 3 
C 0.795609 3 1.55874 2.683901 2.12132 2.12132 
C 2.683901 1.55874 3 0.795609 3 0 
C 3 -0.795609 2.683901 -1.55874 2.12132 -2.12132 
C 1.55874 -2.683901 0.795609 -3 0 -3 
C -0.795609 -3 -1.55874 -2.683901 -2.12132 -2.12132 
C -2.683901 -1.55874 -3 -0.795609 -3 0 
C -3 0.795609 -2.683901 1.55874 -2.12132 2.12132 
C -1.55874 2.683901 -0.795609 3 0 3 
z
" id="mfec4258908" style="stroke:#ffffff;"/>
     </defs>
     <g>
      <use style="fill:#6699dd;stroke:#ffffff;" x="67.21125" xlink:href="#mfec4258908" y="117.456094"/>
     </g>
    </g>
    <g id="text_22">
     <!-- classifier TR -->
     <g style="fill:#262626;" transform="translate(87.01125 121.306094)scale(0.11 -0.11)">
      <defs>
       <path d="M -19 4666 
L 3928 4666 
L 3928 4134 
L 2272 4134 
L 2272 0 
L 1638 0 
L 1638 4134 
L -19 4134 
L -19 4666 
z
" id="DejaVuSans-54" transform="scale(0.015625)"/>
       <path d="M 2841 2188 
Q 3044 2119 3236 1894 
Q 3428 1669 3622 1275 
L 4263 0 
L 3584 0 
L 2988 1197 
Q 2756 1666 2539 1819 
Q 2322 1972 1947 1972 
L 1259 1972 
L 1259 0 
L 628 0 
L 628 4666 
L 2053 4666 
Q 2853 4666 3247 4331 
Q 3641 3997 3641 3322 
Q 3641 2881 3436 2590 
Q 3231 2300 2841 2188 
z
M 1259 4147 
L 1259 2491 
L 2053 2491 
Q 2509 2491 2742 2702 
Q 2975 2913 2975 3322 
Q 2975 3731 2742 3939 
Q 2509 4147 2053 4147 
L 1259 4147 
z
" id="DejaVuSans-52" transform="scale(0.015625)"/>
      </defs>
      <use xlink:href="#DejaVuSans-63"/>
      <use x="54.980469" xlink:href="#DejaVuSans-6c"/>
      <use x="82.763672" xlink:href="#DejaVuSans-61"/>
      <use x="144.042969" xlink:href="#DejaVuSans-73"/>
      <use x="196.142578" xlink:href="#DejaVuSans-73"/>
      <use x="248.242188" xlink:href="#DejaVuSans-69"/>
      <use x="276.025391" xlink:href="#DejaVuSans-66"/>
      <use x="311.230469" xlink:href="#DejaVuSans-69"/>
      <use x="339.013672" xlink:href="#DejaVuSans-65"/>
      <use x="400.537109" xlink:href="#DejaVuSans-72"/>
      <use x="441.650391" xlink:href="#DejaVuSans-20"/>
      <use x="473.4375" xlink:href="#DejaVuSans-54"/>
      <use x="534.521484" xlink:href="#DejaVuSans-52"/>
     </g>
    </g>
    <g id="line2d_13">
     <path d="M 56.21125 133.602031 
L 78.21125 133.602031 
" style="fill:none;stroke:#ffffff;stroke-linecap:round;stroke-width:1.5;"/>
    </g>
    <g id="line2d_14">
     <defs>
      <path d="M 0 3 
C 0.795609 3 1.55874 2.683901 2.12132 2.12132 
C 2.683901 1.55874 3 0.795609 3 0 
C 3 -0.795609 2.683901 -1.55874 2.12132 -2.12132 
C 1.55874 -2.683901 0.795609 -3 0 -3 
C -0.795609 -3 -1.55874 -2.683901 -2.12132 -2.12132 
C -2.683901 -1.55874 -3 -0.795609 -3 0 
C -3 0.795609 -2.683901 1.55874 -2.12132 2.12132 
C -1.55874 2.683901 -0.795609 3 0 3 
z
" id="m14ed7f1c8a" style="stroke:#ffffff;"/>
     </defs>
     <g>
      <use style="fill:#5f8cc9;stroke:#ffffff;" x="67.21125" xlink:href="#m14ed7f1c8a" y="133.602031"/>
     </g>
    </g>
    <g id="text_23">
     <!-- classifier MLP -->
     <g style="fill:#262626;" transform="translate(87.01125 137.452031)scale(0.11 -0.11)">
      <defs>
       <path d="M 628 4666 
L 1259 4666 
L 1259 531 
L 3531 531 
L 3531 0 
L 628 0 
L 628 4666 
z
" id="DejaVuSans-4c" transform="scale(0.015625)"/>
      </defs>
      <use xlink:href="#DejaVuSans-63"/>
      <use x="54.980469" xlink:href="#DejaVuSans-6c"/>
      <use x="82.763672" xlink:href="#DejaVuSans-61"/>
      <use x="144.042969" xlink:href="#DejaVuSans-73"/>
      <use x="196.142578" xlink:href="#DejaVuSans-73"/>
      <use x="248.242188" xlink:href="#DejaVuSans-69"/>
      <use x="276.025391" xlink:href="#DejaVuSans-66"/>
      <use x="311.230469" xlink:href="#DejaVuSans-69"/>
      <use x="339.013672" xlink:href="#DejaVuSans-65"/>
      <use x="400.537109" xlink:href="#DejaVuSans-72"/>
      <use x="441.650391" xlink:href="#DejaVuSans-20"/>
      <use x="473.4375" xlink:href="#DejaVuSans-4d"/>
      <use x="559.716797" xlink:href="#DejaVuSans-4c"/>
      <use x="615.429688" xlink:href="#DejaVuSans-50"/>
     </g>
    </g>
    <g id="line2d_15">
     <path d="M 56.21125 149.747969 
L 78.21125 149.747969 
" style="fill:none;stroke:#ffffff;stroke-linecap:round;stroke-width:1.5;"/>
    </g>
    <g id="line2d_16">
     <defs>
      <path d="M 0 3 
C 0.795609 3 1.55874 2.683901 2.12132 2.12132 
C 2.683901 1.55874 3 0.795609 3 0 
C 3 -0.795609 2.683901 -1.55874 2.12132 -2.12132 
C 1.55874 -2.683901 0.795609 -3 0 -3 
C -0.795609 -3 -1.55874 -2.683901 -2.12132 -2.12132 
C -2.683901 -1.55874 -3 -0.795609 -3 0 
C -3 0.795609 -2.683901 1.55874 -2.12132 2.12132 
C -1.55874 2.683901 -0.795609 3 0 3 
z
" id="ma7e04835b0" style="stroke:#ffffff;"/>
     </defs>
     <g>
      <use style="fill:#5880b6;stroke:#ffffff;" x="67.21125" xlink:href="#ma7e04835b0" y="149.747969"/>
     </g>
    </g>
    <g id="text_24">
     <!-- classifier KNN -->
     <g style="fill:#262626;" transform="translate(87.01125 153.597969)scale(0.11 -0.11)">
      <defs>
       <path d="M 628 4666 
L 1259 4666 
L 1259 2694 
L 3353 4666 
L 4166 4666 
L 1850 2491 
L 4331 0 
L 3500 0 
L 1259 2247 
L 1259 0 
L 628 0 
L 628 4666 
z
" id="DejaVuSans-4b" transform="scale(0.015625)"/>
       <path d="M 628 4666 
L 1478 4666 
L 3547 763 
L 3547 4666 
L 4159 4666 
L 4159 0 
L 3309 0 
L 1241 3903 
L 1241 0 
L 628 0 
L 628 4666 
z
" id="DejaVuSans-4e" transform="scale(0.015625)"/>
      </defs>
      <use xlink:href="#DejaVuSans-63"/>
      <use x="54.980469" xlink:href="#DejaVuSans-6c"/>
      <use x="82.763672" xlink:href="#DejaVuSans-61"/>
      <use x="144.042969" xlink:href="#DejaVuSans-73"/>
      <use x="196.142578" xlink:href="#DejaVuSans-73"/>
      <use x="248.242188" xlink:href="#DejaVuSans-69"/>
      <use x="276.025391" xlink:href="#DejaVuSans-66"/>
      <use x="311.230469" xlink:href="#DejaVuSans-69"/>
      <use x="339.013672" xlink:href="#DejaVuSans-65"/>
      <use x="400.537109" xlink:href="#DejaVuSans-72"/>
      <use x="441.650391" xlink:href="#DejaVuSans-20"/>
      <use x="473.4375" xlink:href="#DejaVuSans-4b"/>
      <use x="539.013672" xlink:href="#DejaVuSans-4e"/>
      <use x="613.818359" xlink:href="#DejaVuSans-4e"/>
     </g>
    </g>
    <g id="line2d_17">
     <path d="M 56.21125 165.893906 
L 78.21125 165.893906 
" style="fill:none;stroke:#ffffff;stroke-linecap:round;stroke-width:1.5;"/>
    </g>
    <g id="line2d_18">
     <defs>
      <path d="M 0 3 
C 0.795609 3 1.55874 2.683901 2.12132 2.12132 
C 2.683901 1.55874 3 0.795609 3 0 
C 3 -0.795609 2.683901 -1.55874 2.12132 -2.12132 
C 1.55874 -2.683901 0.795609 -3 0 -3 
C -0.795609 -3 -1.55874 -2.683901 -2.12132 -2.12132 
C -2.683901 -1.55874 -3 -0.795609 -3 0 
C -3 0.795609 -2.683901 1.55874 -2.12132 2.12132 
C -1.55874 2.683901 -0.795609 3 0 3 
z
" id="mef6da9d0e9" style="stroke:#ffffff;"/>
     </defs>
     <g>
      <use style="fill:#5073a1;stroke:#ffffff;" x="67.21125" xlink:href="#mef6da9d0e9" y="165.893906"/>
     </g>
    </g>
    <g id="text_25">
     <!-- classifier XGB -->
     <g style="fill:#262626;" transform="translate(87.01125 169.743906)scale(0.11 -0.11)">
      <defs>
       <path d="M 403 4666 
L 1081 4666 
L 2241 2931 
L 3406 4666 
L 4084 4666 
L 2584 2425 
L 4184 0 
L 3506 0 
L 2194 1984 
L 872 0 
L 191 0 
L 1856 2491 
L 403 4666 
z
" id="DejaVuSans-58" transform="scale(0.015625)"/>
       <path d="M 3809 666 
L 3809 1919 
L 2778 1919 
L 2778 2438 
L 4434 2438 
L 4434 434 
Q 4069 175 3628 42 
Q 3188 -91 2688 -91 
Q 1594 -91 976 548 
Q 359 1188 359 2328 
Q 359 3472 976 4111 
Q 1594 4750 2688 4750 
Q 3144 4750 3555 4637 
Q 3966 4525 4313 4306 
L 4313 3634 
Q 3963 3931 3569 4081 
Q 3175 4231 2741 4231 
Q 1884 4231 1454 3753 
Q 1025 3275 1025 2328 
Q 1025 1384 1454 906 
Q 1884 428 2741 428 
Q 3075 428 3337 486 
Q 3600 544 3809 666 
z
" id="DejaVuSans-47" transform="scale(0.015625)"/>
       <path d="M 1259 2228 
L 1259 519 
L 2272 519 
Q 2781 519 3026 730 
Q 3272 941 3272 1375 
Q 3272 1813 3026 2020 
Q 2781 2228 2272 2228 
L 1259 2228 
z
M 1259 4147 
L 1259 2741 
L 2194 2741 
Q 2656 2741 2882 2914 
Q 3109 3088 3109 3444 
Q 3109 3797 2882 3972 
Q 2656 4147 2194 4147 
L 1259 4147 
z
M 628 4666 
L 2241 4666 
Q 2963 4666 3353 4366 
Q 3744 4066 3744 3513 
Q 3744 3084 3544 2831 
Q 3344 2578 2956 2516 
Q 3422 2416 3680 2098 
Q 3938 1781 3938 1306 
Q 3938 681 3513 340 
Q 3088 0 2303 0 
L 628 0 
L 628 4666 
z
" id="DejaVuSans-42" transform="scale(0.015625)"/>
      </defs>
      <use xlink:href="#DejaVuSans-63"/>
      <use x="54.980469" xlink:href="#DejaVuSans-6c"/>
      <use x="82.763672" xlink:href="#DejaVuSans-61"/>
      <use x="144.042969" xlink:href="#DejaVuSans-73"/>
      <use x="196.142578" xlink:href="#DejaVuSans-73"/>
      <use x="248.242188" xlink:href="#DejaVuSans-69"/>
      <use x="276.025391" xlink:href="#DejaVuSans-66"/>
      <use x="311.230469" xlink:href="#DejaVuSans-69"/>
      <use x="339.013672" xlink:href="#DejaVuSans-65"/>
      <use x="400.537109" xlink:href="#DejaVuSans-72"/>
      <use x="441.650391" xlink:href="#DejaVuSans-20"/>
      <use x="473.4375" xlink:href="#DejaVuSans-58"/>
      <use x="541.943359" xlink:href="#DejaVuSans-47"/>
      <use x="619.433594" xlink:href="#DejaVuSans-42"/>
     </g>
    </g>
    <g id="line2d_19">
     <path d="M 56.21125 182.039844 
L 78.21125 182.039844 
" style="fill:none;stroke:#ffffff;stroke-linecap:round;stroke-width:1.5;"/>
    </g>
    <g id="line2d_20">
     <defs>
      <path d="M 0 3 
C 0.795609 3 1.55874 2.683901 2.12132 2.12132 
C 2.683901 1.55874 3 0.795609 3 0 
C 3 -0.795609 2.683901 -1.55874 2.12132 -2.12132 
C 1.55874 -2.683901 0.795609 -3 0 -3 
C -0.795609 -3 -1.55874 -2.683901 -2.12132 -2.12132 
C -2.683901 -1.55874 -3 -0.795609 -3 0 
C -3 0.795609 -2.683901 1.55874 -2.12132 2.12132 
C -1.55874 2.683901 -0.795609 3 0 3 
z
" id="m896623b7c0" style="stroke:#ffffff;"/>
     </defs>
     <g>
      <use style="fill:#49668d;stroke:#ffffff;" x="67.21125" xlink:href="#m896623b7c0" y="182.039844"/>
     </g>
    </g>
    <g id="text_26">
     <!-- classifier NB -->
     <g style="fill:#262626;" transform="translate(87.01125 185.889844)scale(0.11 -0.11)">
      <use xlink:href="#DejaVuSans-63"/>
      <use x="54.980469" xlink:href="#DejaVuSans-6c"/>
      <use x="82.763672" xlink:href="#DejaVuSans-61"/>
      <use x="144.042969" xlink:href="#DejaVuSans-73"/>
      <use x="196.142578" xlink:href="#DejaVuSans-73"/>
      <use x="248.242188" xlink:href="#DejaVuSans-69"/>
      <use x="276.025391" xlink:href="#DejaVuSans-66"/>
      <use x="311.230469" xlink:href="#DejaVuSans-69"/>
      <use x="339.013672" xlink:href="#DejaVuSans-65"/>
      <use x="400.537109" xlink:href="#DejaVuSans-72"/>
      <use x="441.650391" xlink:href="#DejaVuSans-20"/>
      <use x="473.4375" xlink:href="#DejaVuSans-4e"/>
      <use x="548.242188" xlink:href="#DejaVuSans-42"/>
     </g>
    </g>
   </g>
  </g>
 </g>
 <defs>
  <clipPath id="p9d4f75ac6f">
   <rect height="665.28" width="558" x="46.31125" y="22.318125"/>
  </clipPath>
 </defs>
</svg>
